<svg width="192" height="192" viewBox="0 0 192 192" fill="none" xmlns="http://www.w3.org/2000/svg">
<g clip-path="url(#clip0_1_39)">
<rect width="192" height="192" rx="8" fill="#B5835A"/>
<g clip-path="url(#clip1_1_39)">
<path d="M-108 78H-90.1665C-89.3003 78 -88.4851 78.3599 -87.8736 78.9768L-84.7146 82.1127C-84.1031 82.7297 -83.7974 83.5522 -83.7974 84.4262V94.9651C-83.7974 95.839 -84.1031 96.6616 -84.7146 97.2785L-87.8736 100.414C-88.4851 101.031 -89.3003 101.391 -90.1665 101.391H-101.478V113.987H-108V78ZM-101.478 84.5804V94.8109H-91.4913L-90.3194 93.577V85.8142L-91.4913 84.5804H-101.478ZM-51.1137 78V110.696C-51.1137 112.136 -52.0309 113.421 -53.4575 113.832C-54.6804 114.244 -56.1071 113.935 -57.0752 112.496L-70.221 92.2918V113.987H-76.743V81.2902C-76.743 79.8507 -75.7749 78.5655 -74.3991 78.1542C-73.0234 77.743 -71.5458 78.257 -70.7305 79.4909L-57.6357 99.6947V78H-51.1137ZM-2.37984 78L-10.6852 111.519C-11.0418 112.907 -12.2647 113.884 -13.6914 113.987H-13.8442C-15.22 113.987 -16.4428 113.164 -16.9014 111.827L-23.2196 94.8623L-29.5377 111.827C-30.0472 113.215 -31.372 114.038 -32.7987 113.987C-34.2254 113.884 -35.3973 112.907 -35.754 111.519L-44.0593 78H-37.3335L-31.9835 99.6433L-26.2767 84.3233C-25.8182 83.0381 -24.5953 82.2156 -23.2196 82.2156C-21.8438 82.2156 -20.6719 83.0381 -20.1624 84.3233L-14.5066 99.6433L-9.10562 78H-2.37984ZM20.9005 78H32.3649C33.2311 78 34.0463 78.3599 34.6578 78.9768L37.8168 82.1127C38.4283 82.7297 38.734 83.5522 38.734 84.4262V90.9037H32.212V85.8142L31.0401 84.5804H22.2762L21.0534 85.8142V90.2354L22.0724 91.5207L33.8425 94.2968C34.5559 94.5024 35.1673 94.9137 35.6259 95.4792L38.0207 98.5637C38.4792 99.1292 38.734 99.849 38.734 100.569V107.56C38.734 108.434 38.4283 109.257 37.8168 109.874L34.6578 113.01C34.0463 113.627 33.2311 113.987 32.3649 113.987H20.9005C20.0343 113.987 19.2191 113.627 18.6076 113.01L15.4995 109.874C14.8881 109.257 14.5314 108.434 14.5314 107.56V101.083H21.0534V106.172L22.2762 107.406H31.0401L32.212 106.172V101.751L31.2439 100.466L19.4738 97.6898C18.7605 97.4841 18.0981 97.0729 17.6395 96.5074L15.2447 93.4228C14.7862 92.8573 14.5314 92.1376 14.5314 91.4178V84.4262C14.5314 83.5522 14.8881 82.7297 15.4995 82.1127L18.6076 78.9768C19.2191 78.3599 20.0343 78 20.9005 78ZM68.972 84.5804H60.6157V113.987H54.0937V84.5804H45.7884V78H68.972V84.5804Z" fill="white"/>
<path d="M92.5411 109.987C94.8106 109.989 97.2343 109.291 99.0154 108.312C100.335 107.586 101.586 106.522 102.769 105.12C104.537 103.021 105.301 100.952 105.719 98.3769C105.832 97.6877 105.88 96.6256 105.864 95.1904C105.861 94.8335 105.862 89.1237 105.868 78.0611C105.868 78.0546 105.869 78.0481 105.872 78.042C105.874 78.0359 105.878 78.0304 105.882 78.0258C105.887 78.0211 105.893 78.0174 105.899 78.0149C105.905 78.0124 105.911 78.0111 105.918 78.0111H109.858C109.875 78.0111 109.89 78.0178 109.902 78.0296C109.914 78.0414 109.92 78.0574 109.92 78.0741C109.908 86.9481 109.907 92.241 109.917 93.9529C109.931 96.6206 109.838 98.5375 109.636 99.7034C108.944 103.701 106.658 107.694 103.479 110.232C100.246 112.812 96.6394 114.002 92.5393 114C88.441 114 84.8347 112.807 81.6031 110.224C78.4265 107.684 76.1423 103.69 75.4538 99.6923C75.2518 98.5264 75.1594 96.6095 75.1765 93.9417C75.1875 92.2299 75.19 86.937 75.1839 78.063C75.1839 78.0547 75.1855 78.0465 75.1886 78.0389C75.1917 78.0312 75.1963 78.0243 75.2021 78.0184C75.2079 78.0126 75.2148 78.008 75.2224 78.0048C75.23 78.0016 75.2381 78 75.2463 78L79.1867 78.0019C79.1998 78.0019 79.2124 78.0071 79.2217 78.0165C79.231 78.0259 79.2363 78.0386 79.2363 78.0519C79.235 89.1145 79.232 94.8242 79.2271 95.1811C79.2112 96.6163 79.2589 97.6785 79.3703 98.3676C79.7871 100.943 80.5491 103.014 82.3173 105.113C83.4986 106.516 84.749 107.581 86.0686 108.307C87.8479 109.289 90.2716 109.987 92.5411 109.987Z" fill="white"/>
<path d="M92.5521 104.2C96.7238 104.198 100.117 100.659 100.112 96.4613C100.112 95.9537 100.118 89.824 100.132 78.0722C100.132 78.0632 100.134 78.0543 100.137 78.046C100.14 78.0377 100.145 78.0301 100.152 78.0238C100.158 78.0174 100.165 78.0124 100.174 78.0089C100.182 78.0055 100.191 78.0037 100.2 78.0037H104.113C104.125 78.0037 104.136 78.0086 104.145 78.0173C104.154 78.0259 104.158 78.0377 104.158 78.05C104.147 85.9644 104.152 91.8927 104.171 95.8351C104.177 97.1813 104.097 98.2114 103.929 98.9253C102.814 103.657 99.4726 107.043 94.761 108.072C94.2346 108.185 93.4989 108.243 92.5539 108.244C91.6101 108.244 90.8744 108.187 90.3469 108.073C85.6353 107.051 82.2898 103.67 81.1697 98.9382C81.0008 98.2244 80.9188 97.1943 80.9237 95.8481C80.9384 91.9057 80.9359 85.9773 80.9163 78.063C80.9163 78.051 80.9209 78.0395 80.9291 78.0309C80.9373 78.0222 80.9485 78.0171 80.9604 78.0167L84.8733 78.013C84.8823 78.0127 84.8914 78.0143 84.8998 78.0176C84.9083 78.021 84.916 78.026 84.9225 78.0324C84.929 78.0388 84.9342 78.0464 84.9377 78.0548C84.9412 78.0633 84.943 78.0723 84.943 78.0815C84.97 89.8333 84.9834 95.9629 84.9834 96.4706C84.9834 100.669 88.3803 104.203 92.5521 104.2Z" fill="white"/>
<path d="M145.502 78.1543C146.878 78.5657 147.796 79.8514 147.796 81.2914V114H141.272V92.1429L134.747 102.017C134.186 102.943 133.167 103.509 132.046 103.509C130.975 103.509 129.956 102.943 129.344 102.017L122.82 92.1429V114H116.295V81.2914C116.295 79.8514 117.213 78.5657 118.589 78.1543C119.965 77.7429 121.494 78.2571 122.259 79.44L132.046 94.2514L141.832 79.44C142.648 78.2571 144.126 77.7429 145.502 78.1543ZM154.853 78H172.693C173.56 78 174.375 78.36 174.987 78.9771L178.147 82.1143C178.759 82.7314 179.065 83.5543 179.065 84.4286V94.9714C179.065 95.8457 178.759 96.6686 178.147 97.2857L174.987 100.423C174.375 101.04 173.56 101.4 172.693 101.4H161.377V114H154.853V78ZM161.377 84.5829V94.8171H171.368L172.54 93.5829V85.8171L171.368 84.5829H161.377ZM195.982 78H213.822C214.689 78 215.504 78.36 216.116 78.9771L219.276 82.1143C219.888 82.7314 220.194 83.5543 220.194 84.4286V94.9714C220.194 95.8457 219.888 96.6686 219.276 97.2857L216.116 100.423C215.504 101.04 214.689 101.4 213.822 101.4H202.507V114H195.982V78ZM202.507 84.5829V94.8171H212.497L213.669 93.5829V85.8171L212.497 84.5829H202.507ZM227.251 78H245.091C245.958 78 246.773 78.36 247.385 78.9771L250.545 82.1143C251.157 82.7314 251.463 83.5543 251.463 84.4286V94.9714C251.463 95.8457 251.157 96.6686 250.545 97.2857L247.589 100.217L251.463 114H244.683L241.37 102.326L240.147 101.4H233.775V114H227.251V78ZM233.775 84.5829V94.8171H243.766L244.938 93.5829V85.8171L243.766 84.5829H233.775ZM265.605 78H275.646C276.513 78 277.379 78.36 277.991 78.9771L281.814 82.8343C282.425 83.4514 282.731 84.2743 282.731 85.1486V106.851C282.731 107.726 282.425 108.549 281.814 109.166L277.991 113.023C277.379 113.64 276.513 114 275.646 114H265.605C264.738 114 263.923 113.64 263.311 113.023L259.488 109.166C258.876 108.549 258.52 107.726 258.52 106.851V85.1486C258.52 84.2743 258.876 83.4514 259.488 82.8343L263.311 78.9771C263.923 78.36 264.738 78 265.605 78ZM266.981 84.5829L265.044 86.4857V105.463L266.981 107.417H274.321L276.207 105.463V86.4857L274.321 84.5829H266.981ZM296.16 78H307.628C308.495 78 309.311 78.36 309.922 78.9771L313.082 82.1143C313.694 82.7314 314 83.5543 314 84.4286V90.9086H307.476V85.8171L306.303 84.5829H297.536L296.313 85.8171V90.24L297.332 91.5257L309.107 94.3029C309.82 94.5086 310.432 94.92 310.891 95.4857L313.286 98.5714C313.745 99.1371 314 99.8571 314 100.577V107.571C314 108.446 313.694 109.269 313.082 109.886L309.922 113.023C309.311 113.64 308.495 114 307.628 114H296.16C295.293 114 294.478 113.64 293.866 113.023L290.757 109.886C290.145 109.269 289.788 108.446 289.788 107.571V101.091H296.313V106.183L297.536 107.417H306.303L307.476 106.183V101.76L306.507 100.474L294.733 97.6971C294.019 97.4914 293.356 97.08 292.898 96.5143L290.502 93.4286C290.043 92.8629 289.788 92.1429 289.788 91.4229V84.4286C289.788 83.5543 290.145 82.7314 290.757 82.1143L293.866 78.9771C294.478 78.36 295.293 78 296.16 78Z" fill="white"/>
</g>
</g>
<defs>
<clipPath id="clip0_1_39">
<rect width="192" height="192" rx="8" fill="white"/>
</clipPath>
<clipPath id="clip1_1_39">
<rect width="422" height="36" fill="white" transform="translate(-108 78)"/>
</clipPath>
</defs>
</svg>
