<svg width="449" height="61" viewBox="0 0 449 61" fill="none" xmlns="http://www.w3.org/2000/svg">
<rect width="449" height="61" rx="8" fill="#B5835A"/>
<g clip-path="url(#clip0_1_28)">
<path d="M25 13H41.8615C42.6805 13 43.4513 13.3399 44.0294 13.9225L47.0163 16.8843C47.5944 17.4669 47.8835 18.2438 47.8835 19.0692V29.0226C47.8835 29.848 47.5944 30.6248 47.0163 31.2075L44.0294 34.1692C43.4513 34.7519 42.6805 35.0917 41.8615 35.0917H31.1665V46.9873H25V13ZM31.1665 19.2148V28.8769H40.609L41.717 27.7116V20.3801L40.609 19.2148H31.1665ZM78.7859 13V43.8799C78.7859 45.2394 77.9187 46.4532 76.5698 46.8416C75.4136 47.2301 74.0646 46.9387 73.1493 45.5792L60.7199 26.4978V46.9873H54.5534V16.1074C54.5534 14.7479 55.4688 13.5341 56.7695 13.1457C58.0703 12.7572 59.4674 13.2428 60.2382 14.408L72.6194 33.4895V13H78.7859ZM124.864 13L117.011 44.6567C116.674 45.9677 115.517 46.8902 114.169 46.9873H114.024C112.723 46.9873 111.567 46.2104 111.133 44.9481L105.16 28.9255L99.1859 44.9481C98.7041 46.259 97.4516 47.0358 96.1026 46.9873C94.7537 46.8902 93.6457 45.9677 93.3084 44.6567L85.4558 13H91.815L96.8735 33.4409L102.269 18.9721C102.703 17.7582 103.859 16.9814 105.16 16.9814C106.46 16.9814 107.568 17.7582 108.05 18.9721L113.398 33.4409L118.504 13H124.864ZM146.875 13H157.715C158.534 13 159.304 13.3399 159.883 13.9225L162.869 16.8843C163.448 17.4669 163.737 18.2438 163.737 19.0692V25.1869H157.57V20.3801L156.462 19.2148H148.176L147.02 20.3801V24.5557L147.983 25.7695L159.112 28.3914C159.786 28.5856 160.364 28.974 160.798 29.5081L163.062 32.4213C163.496 32.9554 163.737 33.6351 163.737 34.3149V40.9181C163.737 41.7435 163.448 42.5204 162.869 43.103L159.883 46.0648C159.304 46.6474 158.534 46.9873 157.715 46.9873H146.875C146.056 46.9873 145.285 46.6474 144.707 46.0648L141.768 43.103C141.19 42.5204 140.853 41.7435 140.853 40.9181V34.8004H147.02V39.6072L148.176 40.7725H156.462L157.57 39.6072V35.4316L156.655 34.2178L145.526 31.5959C144.852 31.4017 144.225 31.0133 143.792 30.4792L141.528 27.566C141.094 27.0319 140.853 26.3521 140.853 25.6724V19.0692C140.853 18.2438 141.19 17.4669 141.768 16.8843L144.707 13.9225C145.285 13.3399 146.056 13 146.875 13ZM192.327 19.2148H184.426V46.9873H178.259V19.2148H170.407V13H192.327V19.2148Z" fill="white"/>
<path d="M214.611 43.2102C216.757 43.2119 219.049 42.5523 220.733 41.6284C221.98 40.9426 223.163 39.9377 224.281 38.6137C225.953 36.6313 226.675 34.6769 227.071 32.2449C227.178 31.594 227.223 30.5908 227.208 29.2354C227.205 28.8983 227.206 23.5057 227.212 13.0577C227.212 13.0515 227.213 13.0454 227.215 13.0397C227.218 13.0339 227.221 13.0287 227.225 13.0243C227.23 13.0199 227.235 13.0165 227.241 13.0141C227.246 13.0117 227.252 13.0105 227.259 13.0105H230.984C231 13.0105 231.015 13.0168 231.026 13.0279C231.037 13.0391 231.043 13.0542 231.043 13.07C231.032 21.451 231.03 26.4499 231.04 28.0666C231.054 30.5861 230.965 32.3965 230.774 33.4976C230.12 37.2735 227.958 41.0441 224.953 43.4411C221.896 45.8784 218.486 47.0018 214.609 47C210.734 47 207.325 45.8732 204.269 43.4341C201.266 41.0353 199.106 37.263 198.455 33.4871C198.264 32.386 198.177 30.5756 198.193 28.0561C198.203 26.4394 198.206 21.4405 198.2 13.0595C198.2 13.0517 198.201 13.0439 198.204 13.0367C198.207 13.0295 198.212 13.0229 198.217 13.0174C198.223 13.0119 198.229 13.0075 198.236 13.0045C198.243 13.0015 198.251 13 198.259 13L201.985 13.0018C201.997 13.0018 202.009 13.0067 202.018 13.0156C202.026 13.0244 202.031 13.0365 202.031 13.049C202.03 23.497 202.027 28.8895 202.023 29.2266C202.008 30.5821 202.053 31.5852 202.158 32.2361C202.552 34.6682 203.273 36.6243 204.945 38.6067C206.061 39.9318 207.244 40.9373 208.491 41.6232C210.174 42.5505 212.465 43.2102 214.611 43.2102Z" fill="white"/>
<path d="M214.622 37.7441C218.566 37.7424 221.774 34.4005 221.769 30.4357C221.769 29.9563 221.775 24.1671 221.788 13.0682C221.788 13.0597 221.79 13.0513 221.793 13.0435C221.796 13.0356 221.801 13.0285 221.807 13.0225C221.813 13.0165 221.82 13.0117 221.828 13.0084C221.836 13.0052 221.844 13.0035 221.852 13.0035H225.552C225.563 13.0035 225.574 13.0081 225.583 13.0163C225.591 13.0245 225.595 13.0357 225.595 13.0473C225.585 20.5219 225.589 26.1209 225.607 29.8443C225.613 31.1157 225.537 32.0886 225.378 32.7628C224.325 37.2315 221.165 40.4299 216.71 41.401C216.212 41.5083 215.517 41.5626 214.623 41.5637C213.731 41.5637 213.035 41.5101 212.536 41.4028C208.082 40.4369 204.919 37.2437 203.86 32.775C203.7 32.1008 203.622 31.128 203.627 29.8565C203.641 26.1332 203.638 20.5342 203.62 13.0595C203.62 13.0482 203.624 13.0373 203.632 13.0292C203.64 13.021 203.65 13.0162 203.662 13.0158L207.361 13.0123C207.37 13.012 207.378 13.0135 207.386 13.0167C207.394 13.0198 207.402 13.0246 207.408 13.0306C207.414 13.0366 207.419 13.0438 207.422 13.0518C207.425 13.0598 207.427 13.0683 207.427 13.077C207.453 24.1759 207.465 29.965 207.465 30.4444C207.465 34.4092 210.677 37.7476 214.622 37.7441Z" fill="white"/>
<path d="M264.686 13.1457C265.987 13.5343 266.854 14.7486 266.854 16.1086V47H260.686V26.3571L254.517 35.6829C253.987 36.5571 253.023 37.0914 251.963 37.0914C250.95 37.0914 249.987 36.5571 249.408 35.6829L243.239 26.3571V47H237.071V16.1086C237.071 14.7486 237.938 13.5343 239.239 13.1457C240.541 12.7571 241.986 13.2429 242.709 14.36L251.963 28.3486L261.216 14.36C261.987 13.2429 263.384 12.7571 264.686 13.1457ZM273.527 13H290.395C291.214 13 291.985 13.34 292.563 13.9229L295.551 16.8857C296.13 17.4686 296.419 18.2457 296.419 19.0714V29.0286C296.419 29.8543 296.13 30.6314 295.551 31.2143L292.563 34.1771C291.985 34.76 291.214 35.1 290.395 35.1H279.696V47H273.527V13ZM279.696 19.2171V28.8829H289.142L290.25 27.7171V20.3829L289.142 19.2171H279.696ZM312.414 13H329.282C330.102 13 330.873 13.34 331.451 13.9229L334.439 16.8857C335.017 17.4686 335.307 18.2457 335.307 19.0714V29.0286C335.307 29.8543 335.017 30.6314 334.439 31.2143L331.451 34.1771C330.873 34.76 330.102 35.1 329.282 35.1H318.583V47H312.414V13ZM318.583 19.2171V28.8829H328.029L329.138 27.7171V20.3829L328.029 19.2171H318.583ZM341.979 13H358.847C359.666 13 360.437 13.34 361.015 13.9229L364.004 16.8857C364.582 17.4686 364.871 18.2457 364.871 19.0714V29.0286C364.871 29.8543 364.582 30.6314 364.004 31.2143L361.208 33.9829L364.871 47H358.461L355.329 35.9743L354.172 35.1H348.148V47H341.979V13ZM348.148 19.2171V28.8829H357.594L358.702 27.7171V20.3829L357.594 19.2171H348.148ZM378.242 13H387.737C388.556 13 389.375 13.34 389.953 13.9229L393.568 17.5657C394.146 18.1486 394.435 18.9257 394.435 19.7514V40.2486C394.435 41.0743 394.146 41.8514 393.568 42.4343L389.953 46.0771C389.375 46.66 388.556 47 387.737 47H378.242C377.423 47 376.652 46.66 376.074 46.0771L372.459 42.4343C371.881 41.8514 371.543 41.0743 371.543 40.2486V19.7514C371.543 18.9257 371.881 18.1486 372.459 17.5657L376.074 13.9229C376.652 13.34 377.423 13 378.242 13ZM379.544 19.2171L377.712 21.0143V38.9371L379.544 40.7829H386.484L388.267 38.9371V21.0143L386.484 19.2171H379.544ZM407.132 13H417.976C418.795 13 419.566 13.34 420.144 13.9229L423.132 16.8857C423.711 17.4686 424 18.2457 424 19.0714V25.1914H417.831V20.3829L416.723 19.2171H408.433L407.277 20.3829V24.56L408.241 25.7743L419.373 28.3971C420.048 28.5914 420.626 28.98 421.06 29.5143L423.325 32.4286C423.759 32.9629 424 33.6429 424 34.3229V40.9286C424 41.7543 423.711 42.5314 423.132 43.1143L420.144 46.0771C419.566 46.66 418.795 47 417.976 47H407.132C406.313 47 405.542 46.66 404.963 46.0771L402.024 43.1143C401.445 42.5314 401.108 41.7543 401.108 40.9286V34.8086H407.277V39.6171L408.433 40.7829H416.723L417.831 39.6171V35.44L416.915 34.2257L405.783 31.6029C405.108 31.4086 404.481 31.02 404.048 30.4857L401.783 27.5714C401.349 27.0371 401.108 26.3571 401.108 25.6771V19.0714C401.108 18.2457 401.445 17.4686 402.024 16.8857L404.963 13.9229C405.542 13.34 406.313 13 407.132 13Z" fill="white"/>
</g>
<defs>
<clipPath id="clip0_1_28">
<rect width="399" height="34" fill="white" transform="translate(25 13)"/>
</clipPath>
</defs>
</svg>
